<svg width="200" height="200" version="1.1" xmlns="http://www.w3.org/2000/svg" desc="Created with imagetracer.js version 1.2.6" ><path fill="rgb(226,226,250)" stroke="rgb(226,226,250)" stroke-width="1" opacity="0.996078431372549" d="M 21.5 45 L 23.5 47 L 25.5 45 L 27.5 47 L 29.5 45 L 31.5 47 Q 33.3 43.3 35 46.5 L 34 48.5 L 33.5 69 Q 32 66.5 30.5 70 L 28.5 68 L 26.5 70 L 24.5 68 L 22.5 70 L 20.5 68 L 18.5 70 L 16.5 68 L 14.5 70 L 12.5 68 L 10.5 70 L 8.5 68 L 6 69.5 L 14 51.5 L 18.5 46 Q 20 48.5 21.5 45 Z " /><path fill="rgb(226,226,250)" stroke="rgb(226,226,250)" stroke-width="1" opacity="0.996078431372549" d="M 89.5 45 L 91.5 47 L 93.5 45 L 95.5 47 L 97.5 45 L 99.5 47 L 101.5 45 L 103.5 47 L 105.5 45 L 107.5 47 L 109.5 45 L 111.5 47 L 114 45.5 L 99.5 54 L 88 46.5 L 89.5 45 Z " /><path fill="rgb(226,226,250)" stroke="rgb(226,226,250)" stroke-width="1" opacity="0.996078431372549" d="M 165.5 45 L 167.5 47 L 169.5 45 L 171.5 47 L 173.5 45 L 175.5 47 L 177.5 45 L 179.5 47 L 182 45.5 L 181.5 47 Q 183.8 46.3 183 48.5 L 193 67.5 L 190.5 70 Q 188.8 66.3 187 69.5 L 187.5 71 L 184.5 68 L 182.5 70 L 180.5 68 L 178.5 70 L 176.5 68 L 174.5 70 L 172.5 68 L 170.5 70 Q 168.8 66.3 167 69.5 L 166.5 72 L 166 68.5 L 167 67.5 L 167 48.5 L 165.5 45 Z " /><path fill="rgb(226,226,250)" stroke="rgb(226,226,250)" stroke-width="1" opacity="0.996078431372549" d="M 52.5 50 L 68.5 50 L 69 52.5 L 66 59.5 L 64.5 73 L 63.5 69 Q 62 71.5 60.5 68 L 58.5 70 L 56.5 68 L 54.5 70 L 52.5 68 L 50.5 70 L 48.5 68 L 46.5 70 L 44.5 68 L 42 69.5 L 41 67.5 L 41 53 L 52.5 50 Z " /><path fill="rgb(226,226,250)" stroke="rgb(226,226,250)" stroke-width="1" opacity="0.996078431372549" d="M 132 50 L 148.5 50 L 160 53 L 160 65.5 L 158.5 73 L 156.5 68 L 154.5 70 L 152.5 68 L 150.5 70 L 148.5 68 L 146.5 70 L 144.5 68 L 142.5 70 Q 140.5 66 138.5 70 L 136 67.5 L 132 50 Z " /><path fill="rgb(226,226,250)" stroke="rgb(226,226,250)" stroke-width="1" opacity="0.996078431372549" d="M 77.5 52 Q 88.3 53.7 95 59.5 Q 89.3 63.8 86.5 71 L 84.5 68 L 82.5 70 L 80.5 68 L 78.5 70 L 76.5 68 L 74.5 70 L 72 69.5 Q 72.3 58.3 77.5 52 Z " /><path fill="rgb(226,226,250)" stroke="rgb(226,226,250)" stroke-width="1" opacity="0.996078431372549" d="M 120.5 52 Q 124.3 51.3 125 53.5 L 129 69.5 L 126.5 70 L 124.5 68 L 122.5 70 L 120.5 68 L 118.5 70 L 116.5 68 L 114.5 70 Q 112.3 70.8 113 68.5 L 106 59.5 L 120.5 52 Z " /><path fill="rgb(226,226,250)" stroke="rgb(226,226,250)" stroke-width="1" opacity="0.996078431372549" d="M 100.5 64 L 104.5 69 L 102.5 70 L 100.5 68 L 97 70.5 L 97.5 69 L 95.5 70 L 100.5 64 Z " /><path fill="rgb(226,226,250)" stroke="rgb(226,226,250)" stroke-width="1" opacity="0.996078431372549" d="M 105.5 70 L 106.5 72 L 105.5 70 Z " /><path fill="rgb(226,226,250)" stroke="rgb(226,226,250)" stroke-width="1" opacity="0.996078431372549" d="M 42.5 71 L 43 73.5 L 42 73.5 L 42.5 71 Z " /><path fill="rgb(226,226,250)" stroke="rgb(226,226,250)" stroke-width="1" opacity="0.996078431372549" d="M 79.5 71 L 83 71.5 L 79.5 72 L 79.5 71 Z " /><path fill="rgb(226,226,250)" stroke="rgb(226,226,250)" stroke-width="1" opacity="0.996078431372549" d="M 94.5 71 L 93.5 73 L 94.5 71 Z " /><path fill="rgb(226,226,250)" stroke="rgb(226,226,250)" stroke-width="1" opacity="0.996078431372549" d="M 114.5 71 L 115.5 73 L 114.5 71 Z " /><path fill="rgb(226,226,250)" stroke="rgb(226,226,250)" stroke-width="1" opacity="0.996078431372549" d="M 118.5 71 L 121 71.5 L 118.5 72 L 118.5 71 Z " /><path fill="rgb(226,226,250)" stroke="rgb(226,226,250)" stroke-width="1" opacity="0.996078431372549" d="M 103.5 77 L 101.5 80 L 103.5 77 Z " /><path fill="rgb(226,226,250)" stroke="rgb(226,226,250)" stroke-width="1" opacity="0.996078431372549" d="M 73.5 78 L 79 78.5 L 73.5 79 L 73.5 78 Z " /><path fill="rgb(226,226,250)" stroke="rgb(226,226,250)" stroke-width="1" opacity="0.996078431372549" d="M 122.5 78 L 127 78.5 L 122.5 79 L 122.5 78 Z " /><path fill="rgb(226,226,250)" stroke="rgb(226,226,250)" stroke-width="1" opacity="0.996078431372549" d="M 44.5 80 L 45.5 82 L 44.5 80 Z " /><path fill="rgb(226,226,250)" stroke="rgb(226,226,250)" stroke-width="1" opacity="0.996078431372549" d="M 83.5 80 L 84 82.5 L 83 82.5 L 83.5 80 Z " /><path fill="rgb(226,226,250)" stroke="rgb(226,226,250)" stroke-width="1" opacity="0.996078431372549" d="M 109.5 82 Q 111.8 82.8 111 86.5 L 110 86.5 L 109.5 82 Z " /><path fill="rgb(226,226,250)" stroke="rgb(226,226,250)" stroke-width="1" opacity="0.996078431372549" d="M 106.5 84 L 105.5 86 L 106.5 84 Z " /><path fill="rgb(226,226,250)" stroke="rgb(226,226,250)" stroke-width="1" opacity="0.996078431372549" d="M 83.5 87 L 82.5 89 L 83.5 87 Z " /><path fill="rgb(226,226,250)" stroke="rgb(226,226,250)" stroke-width="1" opacity="0.996078431372549" d="M 158.5 93 L 157.5 95 L 158.5 93 Z " /><path fill="rgb(226,226,250)" stroke="rgb(226,226,250)" stroke-width="1" opacity="0.996078431372549" d="M 169.5 94 L 170.5 96 L 169.5 94 Z " /><path fill="rgb(226,226,250)" stroke="rgb(226,226,250)" stroke-width="1" opacity="0.996078431372549" d="M 30.5 95 L 29.5 97 L 30.5 95 Z " /><path fill="rgb(226,226,250)" stroke="rgb(226,226,250)" stroke-width="1" opacity="0.996078431372549" d="M 116.5 95 L 118 95.5 L 115.5 97 L 116.5 95 Z " /><path fill="rgb(226,226,250)" stroke="rgb(226,226,250)" stroke-width="1" opacity="0.996078431372549" d="M 65.5 97 L 64.5 99 L 65.5 97 Z " /><path fill="rgb(226,226,250)" stroke="rgb(226,226,250)" stroke-width="1" opacity="0.996078431372549" d="M 79.5 97 L 81.5 100 L 79.5 97 Z " /><path fill="rgb(226,226,250)" stroke="rgb(226,226,250)" stroke-width="1" opacity="0.996078431372549" d="M 147.5 97 L 146.5 99 L 147.5 97 Z " /><path fill="rgb(226,226,250)" stroke="rgb(226,226,250)" stroke-width="1" opacity="0.996078431372549" d="M 72.5 100 L 71.5 102 L 72.5 100 Z " /><path fill="rgb(226,226,250)" stroke="rgb(226,226,250)" stroke-width="1" opacity="0.996078431372549" d="M 130.5 102 L 132.5 105 L 130.5 102 Z " /><path fill="rgb(226,226,250)" stroke="rgb(226,226,250)" stroke-width="1" opacity="0.996078431372549" d="M 150.5 104 L 149.5 106 L 150.5 104 Z " /><path fill="rgb(226,226,250)" stroke="rgb(226,226,250)" stroke-width="1" opacity="0.996078431372549" d="M 122.5 105 L 121.5 107 L 122.5 105 Z " /><path fill="rgb(226,226,250)" stroke="rgb(226,226,250)" stroke-width="1" opacity="0.996078431372549" d="M 146.5 108 L 144.5 111 L 146.5 108 Z " /><path fill="rgb(226,226,250)" stroke="rgb(226,226,250)" stroke-width="1" opacity="0.996078431372549" d="M 98.5 117 L 97.5 119 L 98.5 117 Z " /><path fill="rgb(226,226,250)" stroke="rgb(226,226,250)" stroke-width="1" opacity="0.996078431372549" d="M 89.5 120 L 92 121.5 L 90.5 121 L 89.5 120 Z " /><path fill="rgb(226,226,250)" stroke="rgb(226,226,250)" stroke-width="1" opacity="0.996078431372549" d="M 173.5 120 L 172.5 122 L 173.5 120 Z " /><path fill="rgb(226,226,250)" stroke="rgb(226,226,250)" stroke-width="1" opacity="0.996078431372549" d="M 19.5 122 L 23.5 127 L 19.5 122 Z " /><path fill="rgb(226,226,250)" stroke="rgb(226,226,250)" stroke-width="1" opacity="0.996078431372549" d="M 57.5 133 L 58 135.5 L 57 135.5 L 57.5 133 Z " /><path fill="rgb(226,226,250)" stroke="rgb(226,226,250)" stroke-width="1" opacity="0.996078431372549" d="M 96.5 153 L 97.5 155 L 96.5 153 Z " /><path fill="rgb(248,248,254)" stroke="rgb(248,248,254)" stroke-width="1" opacity="1" d="M 64.5 8 L 67.5 9 L 70.5 8 L 72.5 8 L 75.5 9 L 78.5 8 L 80.5 8 L 83.5 9 L 86.5 8 L 88.5 8 L 91.5 9 L 94.5 8 L 96.5 8 L 99.5 9 L 102.5 8 L 104.5 8 L 107.5 9 L 110.5 8 L 112.5 8 L 115.5 9 L 118.5 8 L 120.5 8 L 123.5 9 L 126.5 8 L 128.5 8 L 131.5 9 L 134.5 8 L 142.5 11 L 162 23 L 161.5 25 L 159.5 25 L 156.5 24 L 151.5 25 L 148.5 24 L 143.5 25 L 140.5 24 L 135.5 25 L 132.5 24 L 127.5 25 L 124.5 24 L 119.5 25 L 116.5 24 Q 113.5 25.5 116.5 27 L 118 26.5 Q 115.7 30.2 113.5 25 L 101.5 16 L 99.5 16 L 83.5 29 L 86 25.5 L 84.5 24 L 79.5 25 L 76.5 24 L 71.5 25 L 68.5 24 L 63.5 25 L 60.5 24 L 55.5 25 L 52.5 24 L 47.5 25 L 44.5 24 L 39.5 25 L 37 24.5 Q 48.7 14.2 64.5 8 Z " /><path fill="rgb(248,248,254)" stroke="rgb(248,248,254)" stroke-width="1" opacity="1" d="M 99.5 24 L 101.5 24 L 108 29.5 L 104.5 27 L 102.5 26 L 101 26.5 L 101.5 25 L 95.5 28 L 97.5 25 L 99.5 24 Z " /><path fill="rgb(248,248,254)" stroke="rgb(248,248,254)" stroke-width="1" opacity="1" d="M 93.5 28 L 86.5 36 L 93.5 28 Z " /><path fill="rgb(248,248,254)" stroke="rgb(248,248,254)" stroke-width="1" opacity="1" d="M 118.5 30 L 120.5 33 L 118.5 30 Z " /><path fill="rgb(248,248,254)" stroke="rgb(248,248,254)" stroke-width="1" opacity="1" d="M 110.5 31 L 113.5 35 L 110.5 31 Z " /><path fill="rgb(248,248,254)" stroke="rgb(248,248,254)" stroke-width="1" opacity="1" d="M 80.5 32 L 79.5 34 L 80.5 32 Z " /><path fill="rgb(248,248,254)" stroke="rgb(248,248,254)" stroke-width="1" opacity="1" d="M 122.5 35 L 123.5 37 L 122.5 35 Z " /><path fill="rgb(248,248,254)" stroke="rgb(248,248,254)" stroke-width="1" opacity="1" d="M 77.5 36 L 76.5 38 L 77.5 36 Z " /><path fill="rgb(248,248,254)" stroke="rgb(248,248,254)" stroke-width="1" opacity="1" d="M 116.5 38 L 117.5 40 L 116.5 38 Z " /><path fill="rgb(248,248,254)" stroke="rgb(248,248,254)" stroke-width="1" opacity="1" d="M 83.5 39 L 82.5 41 L 83.5 39 Z " /><path fill="rgb(248,248,254)" stroke="rgb(248,248,254)" stroke-width="1" opacity="1" d="M 125.5 40 L 126.5 42 L 125.5 40 Z " /><path fill="rgb(248,248,254)" stroke="rgb(248,248,254)" stroke-width="1" opacity="1" d="M 118.5 41 L 119.5 43 L 118.5 41 Z " /><path fill="rgb(248,248,254)" stroke="rgb(248,248,254)" stroke-width="1" opacity="1" d="M 55.5 42 L 61 42.5 L 55.5 43 L 55.5 42 Z " /><path fill="rgb(248,248,254)" stroke="rgb(248,248,254)" stroke-width="1" opacity="1" d="M 62.5 42 L 68 42.5 L 62.5 43 L 62.5 42 Z " /><path fill="rgb(248,248,254)" stroke="rgb(248,248,254)" stroke-width="1" opacity="1" d="M 81.5 42 L 80.5 44 L 81.5 42 Z " /><path fill="rgb(248,248,254)" stroke="rgb(248,248,254)" stroke-width="1" opacity="1" d="M 133.5 42 L 137 42.5 L 133.5 43 L 133.5 42 Z " /><path fill="rgb(248,248,254)" stroke="rgb(248,248,254)" stroke-width="1" opacity="1" d="M 142.5 42 L 146 42.5 L 142.5 43 L 142.5 42 Z " /><path fill="rgb(248,248,254)" stroke="rgb(248,248,254)" stroke-width="1" opacity="1" d="M 48.5 43 L 51 43.5 L 48.5 44 L 48.5 43 Z " /><path fill="rgb(248,248,254)" stroke="rgb(248,248,254)" stroke-width="1" opacity="1" d="M 150.5 43 L 153 43.5 L 150.5 44 L 150.5 43 Z " /><path fill="rgb(248,248,254)" stroke="rgb(248,248,254)" stroke-width="1" opacity="1" d="M 120.5 44 L 119.5 46 L 118 45.5 L 120.5 44 Z " /><path fill="rgb(248,248,254)" stroke="rgb(248,248,254)" stroke-width="1" opacity="1" d="M 52.5 49 L 55 49.5 L 52.5 50 L 52.5 49 Z " /><path fill="rgb(248,248,254)" stroke="rgb(248,248,254)" stroke-width="1" opacity="1" d="M 146.5 49 L 149 49.5 L 146.5 50 L 146.5 49 Z " /><path fill="rgb(248,248,254)" stroke="rgb(248,248,254)" stroke-width="1" opacity="1" d="M 166.5 50 L 167 54.5 L 166 54.5 L 166.5 50 Z " /><path fill="rgb(248,248,254)" stroke="rgb(248,248,254)" stroke-width="1" opacity="1" d="M 41.5 52 L 41 53.5 L 40.5 58 L 40 53.5 L 41.5 52 Z " /><path fill="rgb(248,248,254)" stroke="rgb(248,248,254)" stroke-width="1" opacity="1" d="M 103.5 52 L 102.5 54 L 103.5 52 Z " /><path fill="rgb(248,248,254)" stroke="rgb(248,248,254)" stroke-width="1" opacity="1" d="M 98.5 53 L 99.5 55 L 98.5 53 Z " /><path fill="rgb(248,248,254)" stroke="rgb(248,248,254)" stroke-width="1" opacity="1" d="M 160.5 54 L 161 62.5 L 160 62.5 L 160.5 54 Z " /><path fill="rgb(248,248,254)" stroke="rgb(248,248,254)" stroke-width="1" opacity="1" d="M 106.5 58 L 106.5 61 Q 103.5 59.5 106.5 58 Z " /><path fill="rgb(248,248,254)" stroke="rgb(248,248,254)" stroke-width="1" opacity="1" d="M 40.5 59 L 41 64.5 L 40 64.5 L 40.5 59 Z " /><path fill="rgb(248,248,254)" stroke="rgb(248,248,254)" stroke-width="1" opacity="1" d="M 94.5 60 L 92.5 63 L 94.5 60 Z " /><path fill="rgb(248,248,254)" stroke="rgb(248,248,254)" stroke-width="1" opacity="1" d="M 166.5 61 L 167 65.5 L 166 65.5 L 166.5 61 Z " /><path fill="rgb(248,248,254)" stroke="rgb(248,248,254)" stroke-width="1" opacity="1" d="M 101.5 64 L 104.5 68 L 101.5 64 Z " /><path fill="rgb(248,248,254)" stroke="rgb(248,248,254)" stroke-width="1" opacity="1" d="M 109.5 64 L 110.5 66 L 109.5 64 Z " /><path fill="rgb(248,248,254)" stroke="rgb(248,248,254)" stroke-width="1" opacity="1" d="M 65.5 67 L 66 70.5 L 65 70.5 L 65.5 67 Z " /><path fill="rgb(248,248,254)" stroke="rgb(248,248,254)" stroke-width="1" opacity="1" d="M 96.5 67 L 95.5 69 L 96.5 67 Z " /><path fill="rgb(248,248,254)" stroke="rgb(248,248,254)" stroke-width="1" opacity="1" d="M 71.5 68 L 72 71.5 L 71 71.5 L 71.5 68 Z " /><path fill="rgb(248,248,254)" stroke="rgb(248,248,254)" stroke-width="1" opacity="1" d="M 135.5 69 L 137 73.5 L 135 72.5 L 135.5 69 Z " /><path fill="rgb(248,248,254)" stroke="rgb(248,248,254)" stroke-width="1" opacity="1" d="M 98.5 79 L 101 80.5 L 99.5 81 L 98.5 79 Z " /><path fill="rgb(248,248,254)" stroke="rgb(248,248,254)" stroke-width="1" opacity="1" d="M 89.5 83 L 90 86.5 L 89 86.5 L 89.5 83 Z " /><path fill="rgb(248,248,254)" stroke="rgb(248,248,254)" stroke-width="1" opacity="1" d="M 95.5 86 L 93.5 89 L 95.5 86 Z " /><path fill="rgb(248,248,254)" stroke="rgb(248,248,254)" stroke-width="1" opacity="1" d="M 48.5 87 L 47.5 89 L 48.5 87 Z " /><path fill="rgb(248,248,254)" stroke="rgb(248,248,254)" stroke-width="1" opacity="1" d="M 37.5 88 L 32.5 94 L 37.5 88 Z " /><path fill="rgb(248,248,254)" stroke="rgb(248,248,254)" stroke-width="1" opacity="1" d="M 69.5 94 L 66.5 98 L 69.5 94 Z " /><path fill="rgb(248,248,254)" stroke="rgb(248,248,254)" stroke-width="1" opacity="1" d="M 160.5 94 L 163.5 98 L 160.5 94 Z " /><path fill="rgb(248,248,254)" stroke="rgb(248,248,254)" stroke-width="1" opacity="1" d="M 133.5 96 L 137.5 101 L 133.5 96 Z " /><path fill="rgb(248,248,254)" stroke="rgb(248,248,254)" stroke-width="1" opacity="1" d="M 53.5 98 L 54.5 100 L 53.5 98 Z " /><path fill="rgb(248,248,254)" stroke="rgb(248,248,254)" stroke-width="1" opacity="1" d="M 64.5 99 L 62.5 102 L 64.5 99 Z " /><path fill="rgb(248,248,254)" stroke="rgb(248,248,254)" stroke-width="1" opacity="1" d="M 115.5 99 L 116.5 101 L 115.5 99 Z " /><path fill="rgb(248,248,254)" stroke="rgb(248,248,254)" stroke-width="1" opacity="1" d="M 146.5 99 L 143.5 103 L 146.5 99 Z " /><path fill="rgb(248,248,254)" stroke="rgb(248,248,254)" stroke-width="1" opacity="1" d="M 172.5 99 L 173.5 101 L 172.5 99 Z " /><path fill="rgb(248,248,254)" stroke="rgb(248,248,254)" stroke-width="1" opacity="1" d="M 74.5 101 L 77.5 105 L 74.5 101 Z " /><path fill="rgb(248,248,254)" stroke="rgb(248,248,254)" stroke-width="1" opacity="1" d="M 152.5 101 L 151.5 103 L 152.5 101 Z " /><path fill="rgb(248,248,254)" stroke="rgb(248,248,254)" stroke-width="1" opacity="1" d="M 68.5 103 L 67.5 105 L 68.5 103 Z " /><path fill="rgb(248,248,254)" stroke="rgb(248,248,254)" stroke-width="1" opacity="1" d="M 51.5 105 L 54.5 109 L 51.5 105 Z " /><path fill="rgb(248,248,254)" stroke="rgb(248,248,254)" stroke-width="1" opacity="1" d="M 89.5 112 L 90 113.5 L 87.5 115 L 87.5 114 Q 90 114.7 89.5 112 Z " /><path fill="rgb(248,248,254)" stroke="rgb(248,248,254)" stroke-width="1" opacity="1" d="M 123.5 113 L 124.5 115 L 123.5 113 Z " /><path fill="rgb(248,248,254)" stroke="rgb(248,248,254)" stroke-width="1" opacity="1" d="M 25.5 119 L 27.5 122 L 25.5 119 Z " /><path fill="rgb(248,248,254)" stroke="rgb(248,248,254)" stroke-width="1" opacity="1" d="M 124.5 121 L 125 125.5 L 124 125.5 L 124.5 121 Z " /><path fill="rgb(248,248,254)" stroke="rgb(248,248,254)" stroke-width="1" opacity="1" d="M 181.5 121 L 180.5 123 L 181.5 121 Z " /><path fill="rgb(248,248,254)" stroke="rgb(248,248,254)" stroke-width="1" opacity="1" d="M 169.5 124 L 168.5 126 L 169.5 124 Z " /><path fill="rgb(248,248,254)" stroke="rgb(248,248,254)" stroke-width="1" opacity="1" d="M 94.5 126 L 95.5 128 L 94.5 126 Z " /><path fill="rgb(248,248,254)" stroke="rgb(248,248,254)" stroke-width="1" opacity="1" d="M 176.5 126 L 175.5 128 L 176.5 126 Z " /><path fill="rgb(248,248,254)" stroke="rgb(248,248,254)" stroke-width="1" opacity="1" d="M 57.5 129 L 58 131.5 L 57 131.5 L 57.5 129 Z " /><path fill="rgb(248,248,254)" stroke="rgb(248,248,254)" stroke-width="1" opacity="1" d="M 95.5 129 L 94.5 131 L 95.5 129 Z " /><path fill="rgb(248,248,254)" stroke="rgb(248,248,254)" stroke-width="1" opacity="1" d="M 143.5 131 L 144 135.5 L 143 135.5 L 143.5 131 Z " /><path fill="rgb(248,248,254)" stroke="rgb(248,248,254)" stroke-width="1" opacity="1" d="M 64.5 137 L 73 137.5 L 64.5 138 L 64.5 137 Z " /><path fill="rgb(248,248,254)" stroke="rgb(248,248,254)" stroke-width="1" opacity="1" d="M 128.5 137 L 136 137.5 L 128.5 138 L 128.5 137 Z " /><path fill="rgb(248,248,254)" stroke="rgb(248,248,254)" stroke-width="1" opacity="1" d="M 51.5 141 L 52 143.5 L 51 143.5 L 51.5 141 Z " /><path fill="rgb(248,248,254)" stroke="rgb(248,248,254)" stroke-width="1" opacity="1" d="M 58.5 142 L 58 143.5 L 57.5 145 L 57 143.5 L 58.5 142 Z " /><path fill="rgb(248,248,254)" stroke="rgb(248,248,254)" stroke-width="1" opacity="1" d="M 142.5 142 L 143.5 144 L 142.5 142 Z " /><path fill="rgb(248,248,254)" stroke="rgb(248,248,254)" stroke-width="1" opacity="1" d="M 66.5 143 L 70 143.5 L 66.5 144 L 66.5 143 Z " /><path fill="rgb(248,248,254)" stroke="rgb(248,248,254)" stroke-width="1" opacity="1" d="M 130.5 143 L 134 143.5 L 130.5 144 L 130.5 143 Z " /><path fill="rgb(248,248,254)" stroke="rgb(248,248,254)" stroke-width="1" opacity="1" d="M 84.5 148 L 85.5 150 L 84.5 148 Z " /><path fill="rgb(248,248,254)" stroke="rgb(248,248,254)" stroke-width="1" opacity="1" d="M 92.5 149 L 93.5 151 L 92.5 149 Z " /><path fill="rgb(248,248,254)" stroke="rgb(248,248,254)" stroke-width="1" opacity="1" d="M 87.5 152 L 88.5 154 L 87.5 152 Z " /><path fill="rgb(248,248,254)" stroke="rgb(248,248,254)" stroke-width="1" opacity="1" d="M 105.5 152 L 102.5 156 L 105.5 152 Z " /><path fill="rgb(248,248,254)" stroke="rgb(248,248,254)" stroke-width="1" opacity="1" d="M 111.5 154 L 109.5 157 L 111.5 154 Z " /><path fill="rgb(248,248,254)" stroke="rgb(248,248,254)" stroke-width="1" opacity="1" d="M 107.5 158 L 105.5 161 L 107.5 158 Z " /><path fill="rgb(248,248,254)" stroke="rgb(248,248,254)" stroke-width="1" opacity="1" d="M 138.5 175 L 137.5 177 L 138.5 175 Z " /><path fill="rgb(254,254,254)" stroke="rgb(254,254,254)" stroke-width="1" opacity="1" d="M 88.5 2 L 111.5 3 Q 124.8 2.8 133 7.5 Q 131.8 10.3 130.5 8 L 127.5 9 L 124.5 8 L 122.5 8 L 119.5 9 L 116.5 8 L 114.5 8 L 111.5 9 L 108.5 8 L 106.5 8 L 103.5 9 L 100.5 8 L 98.5 8 L 95.5 9 L 92.5 8 L 90.5 8 L 87.5 9 L 84.5 8 L 82.5 8 L 79.5 9 L 76.5 8 L 74.5 8 L 71.5 9 L 68.5 8 L 67 8.5 Q 66.2 5.9 69.5 7 L 76.5 4 L 87.5 3 L 88.5 2 Z " /><path fill="rgb(254,254,254)" stroke="rgb(254,254,254)" stroke-width="1" opacity="1" d="M 99.5 16 L 103 17.5 L 101.5 17 Q 98.5 17.5 99.5 16 Z " /><path fill="rgb(254,254,254)" stroke="rgb(254,254,254)" stroke-width="1" opacity="1" d="M 94.5 19 L 92.5 22 L 94.5 19 Z " /><path fill="rgb(254,254,254)" stroke="rgb(254,254,254)" stroke-width="1" opacity="1" d="M 108.5 21 L 109.5 23 L 108.5 21 Z " /><path fill="rgb(254,254,254)" stroke="rgb(254,254,254)" stroke-width="1" opacity="1" d="M 89.5 23 L 85.5 28 L 89.5 23 Z " /><path fill="rgb(254,254,254)" stroke="rgb(254,254,254)" stroke-width="1" opacity="1" d="M 113.5 25 L 117.5 30 L 113.5 25 Z " /><path fill="rgb(254,254,254)" stroke="rgb(254,254,254)" stroke-width="1" opacity="1" d="M 95.5 26 L 94.5 28 L 95.5 26 Z " /><path fill="rgb(254,254,254)" stroke="rgb(254,254,254)" stroke-width="1" opacity="1" d="M 107.5 28 L 109.5 31 L 107.5 28 Z " /><path fill="rgb(254,254,254)" stroke="rgb(254,254,254)" stroke-width="1" opacity="1" d="M 83.5 29 L 81.5 32 L 83.5 29 Z " /><path fill="rgb(254,254,254)" stroke="rgb(254,254,254)" stroke-width="1" opacity="1" d="M 120.5 33 L 121.5 35 L 120.5 33 Z " /><path fill="rgb(254,254,254)" stroke="rgb(254,254,254)" stroke-width="1" opacity="1" d="M 79.5 34 L 78.5 36 L 79.5 34 Z " /><path fill="rgb(254,254,254)" stroke="rgb(254,254,254)" stroke-width="1" opacity="1" d="M 114.5 35 L 115.5 37 L 114.5 35 Z " /><path fill="rgb(254,254,254)" stroke="rgb(254,254,254)" stroke-width="1" opacity="1" d="M 85.5 36 L 83.5 39 L 85.5 36 Z " /><path fill="rgb(254,254,254)" stroke="rgb(254,254,254)" stroke-width="1" opacity="1" d="M 77.5 37 L 76.5 39 L 77.5 37 Z " /><path fill="rgb(254,254,254)" stroke="rgb(254,254,254)" stroke-width="1" opacity="1" d="M 74.5 42 L 73.5 44 L 74.5 42 Z " /><path fill="rgb(254,254,254)" stroke="rgb(254,254,254)" stroke-width="1" opacity="1" d="M 137.5 42 L 142 42.5 L 137.5 43 L 137.5 42 Z " /><path fill="rgb(254,254,254)" stroke="rgb(254,254,254)" stroke-width="1" opacity="1" d="M 51.5 43 L 54 43.5 L 51.5 44 L 51.5 43 Z " /><path fill="rgb(254,254,254)" stroke="rgb(254,254,254)" stroke-width="1" opacity="1" d="M 79.5 44 L 80.5 46 L 79.5 44 Z " /><path fill="rgb(254,254,254)" stroke="rgb(254,254,254)" stroke-width="1" opacity="1" d="M 34.5 51 L 35 54.5 L 34 54.5 L 34.5 51 Z " /><path fill="rgb(254,254,254)" stroke="rgb(254,254,254)" stroke-width="1" opacity="1" d="M 96.5 52 L 97.5 54 L 96.5 52 Z " /><path fill="rgb(254,254,254)" stroke="rgb(254,254,254)" stroke-width="1" opacity="1" d="M 166.5 55 L 167 60.5 L 166 60.5 L 166.5 55 Z " /><path fill="rgb(254,254,254)" stroke="rgb(254,254,254)" stroke-width="1" opacity="1" d="M 108.5 56 L 107.5 58 L 108.5 56 Z " /><path fill="rgb(254,254,254)" stroke="rgb(254,254,254)" stroke-width="1" opacity="1" d="M 34.5 60 L 35 64.5 L 34 64.5 L 34.5 60 Z " /><path fill="rgb(254,254,254)" stroke="rgb(254,254,254)" stroke-width="1" opacity="1" d="M 99.5 63 L 101 63.5 L 96.5 67 L 99.5 63 Z " /><path fill="rgb(254,254,254)" stroke="rgb(254,254,254)" stroke-width="1" opacity="1" d="M 91.5 64 L 90.5 66 L 91.5 64 Z " /><path fill="rgb(254,254,254)" stroke="rgb(254,254,254)" stroke-width="1" opacity="1" d="M 40.5 65 L 41 67.5 L 40 67.5 L 40.5 65 Z " /><path fill="rgb(254,254,254)" stroke="rgb(254,254,254)" stroke-width="1" opacity="1" d="M 65.5 71 L 66 72.5 L 64 73.5 L 65.5 71 Z " /><path fill="rgb(254,254,254)" stroke="rgb(254,254,254)" stroke-width="1" opacity="1" d="M 81.5 72 L 84 73.5 L 82.5 74 L 81.5 72 Z " /><path fill="rgb(254,254,254)" stroke="rgb(254,254,254)" stroke-width="1" opacity="1" d="M 75.5 77 L 78 77.5 L 75.5 78 L 75.5 77 Z " /><path fill="rgb(254,254,254)" stroke="rgb(254,254,254)" stroke-width="1" opacity="1" d="M 123.5 77 L 126 77.5 L 123.5 78 L 123.5 77 Z " /><path fill="rgb(254,254,254)" stroke="rgb(254,254,254)" stroke-width="1" opacity="1" d="M 83.5 78 L 85 81.5 L 84 81.5 L 83.5 78 Z " /><path fill="rgb(254,254,254)" stroke="rgb(254,254,254)" stroke-width="1" opacity="1" d="M 102.5 79 L 101.5 81 L 102.5 79 Z " /><path fill="rgb(254,254,254)" stroke="rgb(254,254,254)" stroke-width="1" opacity="1" d="M 152.5 80 L 153.5 82 L 152.5 80 Z " /><path fill="rgb(254,254,254)" stroke="rgb(254,254,254)" stroke-width="1" opacity="1" d="M 57.5 81 L 56.5 83 L 57.5 81 Z " /><path fill="rgb(254,254,254)" stroke="rgb(254,254,254)" stroke-width="1" opacity="1" d="M 155 82 L 157 82.5 L 155 83.5 L 155 82 Z " /><path fill="rgb(254,254,254)" stroke="rgb(254,254,254)" stroke-width="1" opacity="1" d="M 53.5 83 L 55 83.5 L 52.5 85 L 53.5 83 Z " /><path fill="rgb(254,254,254)" stroke="rgb(254,254,254)" stroke-width="1" opacity="1" d="M 94.5 83 L 95.5 85 L 94.5 83 Z " /><path fill="rgb(254,254,254)" stroke="rgb(254,254,254)" stroke-width="1" opacity="1" d="M 106.5 83 L 104.5 86 L 106.5 83 Z " /><path fill="rgb(254,254,254)" stroke="rgb(254,254,254)" stroke-width="1" opacity="1" d="M 116.5 84 L 117 88.5 L 116 88.5 L 116.5 84 Z " /><path fill="rgb(254,254,254)" stroke="rgb(254,254,254)" stroke-width="1" opacity="1" d="M 148.5 84 L 151 85.5 L 149.5 86 L 148.5 84 Z " /><path fill="rgb(254,254,254)" stroke="rgb(254,254,254)" stroke-width="1" opacity="1" d="M 161.5 87 L 162.5 89 L 161.5 87 Z " /><path fill="rgb(254,254,254)" stroke="rgb(254,254,254)" stroke-width="1" opacity="1" d="M 110.5 88 L 109.5 90 L 110.5 88 Z " /><path fill="rgb(254,254,254)" stroke="rgb(254,254,254)" stroke-width="1" opacity="1" d="M 123.5 91 L 126 91.5 L 123.5 92 L 123.5 91 Z " /><path fill="rgb(254,254,254)" stroke="rgb(254,254,254)" stroke-width="1" opacity="1" d="M 41.5 92 L 44 93.5 L 42.5 93 L 38.5 96 L 41.5 92 Z " /><path fill="rgb(254,254,254)" stroke="rgb(254,254,254)" stroke-width="1" opacity="1" d="M 69.5 93 L 70.5 95 L 69.5 93 Z " /><path fill="rgb(254,254,254)" stroke="rgb(254,254,254)" stroke-width="1" opacity="1" d="M 83.5 94 L 86 95.5 L 84.5 95 L 83.5 94 Z " /><path fill="rgb(254,254,254)" stroke="rgb(254,254,254)" stroke-width="1" opacity="1" d="M 161.5 94 L 163.5 97 L 161.5 94 Z " /><path fill="rgb(254,254,254)" stroke="rgb(254,254,254)" stroke-width="1" opacity="1" d="M 168.5 94 L 169.5 96 Q 166.7 96.7 168.5 94 Z " /><path fill="rgb(254,254,254)" stroke="rgb(254,254,254)" stroke-width="1" opacity="1" d="M 79.5 95 L 81 95.5 L 79 96 L 82 100.5 L 78 97.5 L 79.5 95 Z " /><path fill="rgb(254,254,254)" stroke="rgb(254,254,254)" stroke-width="1" opacity="1" d="M 51.5 96 L 52.5 98 L 51.5 96 Z " /><path fill="rgb(254,254,254)" stroke="rgb(254,254,254)" stroke-width="1" opacity="1" d="M 122.5 96 L 123 97.5 L 120 99.5 L 122.5 96 Z " /><path fill="rgb(254,254,254)" stroke="rgb(254,254,254)" stroke-width="1" opacity="1" d="M 132.5 96 L 133.5 98 L 132.5 96 Z " /><path fill="rgb(254,254,254)" stroke="rgb(254,254,254)" stroke-width="1" opacity="1" d="M 46.5 97 L 48 99.5 L 46 98.5 L 46.5 97 Z " /><path fill="rgb(254,254,254)" stroke="rgb(254,254,254)" stroke-width="1" opacity="1" d="M 148.5 97 L 147.5 99 L 148.5 97 Z " /><path fill="rgb(254,254,254)" stroke="rgb(254,254,254)" stroke-width="1" opacity="1" d="M 170.5 97 L 171.5 99 L 170.5 97 Z " /><path fill="rgb(254,254,254)" stroke="rgb(254,254,254)" stroke-width="1" opacity="1" d="M 164.5 98 L 166.5 101 L 164.5 98 Z " /><path fill="rgb(254,254,254)" stroke="rgb(254,254,254)" stroke-width="1" opacity="1" d="M 35.5 99 L 34.5 101 L 35.5 99 Z " /><path fill="rgb(254,254,254)" stroke="rgb(254,254,254)" stroke-width="1" opacity="1" d="M 70 100 L 72 100.5 L 69 102.5 L 70 100 Z " /><path fill="rgb(254,254,254)" stroke="rgb(254,254,254)" stroke-width="1" opacity="1" d="M 126.5 100 L 121.5 106 L 126.5 100 Z " /><path fill="rgb(254,254,254)" stroke="rgb(254,254,254)" stroke-width="1" opacity="1" d="M 129.5 100 L 134.5 106 L 129.5 100 Z " /><path fill="rgb(254,254,254)" stroke="rgb(254,254,254)" stroke-width="1" opacity="1" d="M 48.5 101 L 53.5 107 L 48.5 101 Z " /><path fill="rgb(254,254,254)" stroke="rgb(254,254,254)" stroke-width="1" opacity="1" d="M 137.5 101 L 139.5 104 L 137.5 101 Z " /><path fill="rgb(254,254,254)" stroke="rgb(254,254,254)" stroke-width="1" opacity="1" d="M 56.5 102 L 57.5 104 L 56.5 102 Z " /><path fill="rgb(254,254,254)" stroke="rgb(254,254,254)" stroke-width="1" opacity="1" d="M 144.5 102 L 143.5 104 L 144.5 102 Z " /><path fill="rgb(254,254,254)" stroke="rgb(254,254,254)" stroke-width="1" opacity="1" d="M 167.5 102 L 168.5 104 L 167.5 102 Z " /><path fill="rgb(254,254,254)" stroke="rgb(254,254,254)" stroke-width="1" opacity="1" d="M 174.5 102 L 176 104.5 L 174 103.5 L 174.5 102 Z " /><path fill="rgb(254,254,254)" stroke="rgb(254,254,254)" stroke-width="1" opacity="1" d="M 32.5 103 L 31.5 105 L 32.5 103 Z " /><path fill="rgb(254,254,254)" stroke="rgb(254,254,254)" stroke-width="1" opacity="1" d="M 150.5 103 L 144.5 110 L 150.5 103 Z " /><path fill="rgb(254,254,254)" stroke="rgb(254,254,254)" stroke-width="1" opacity="1" d="M 66.5 105 L 65.5 107 L 66.5 105 Z " /><path fill="rgb(254,254,254)" stroke="rgb(254,254,254)" stroke-width="1" opacity="1" d="M 171.5 107 L 173 110.5 L 172 110.5 L 171.5 107 Z " /><path fill="rgb(254,254,254)" stroke="rgb(254,254,254)" stroke-width="1" opacity="1" d="M 113.5 108 L 112.5 110 L 113.5 108 Z " /><path fill="rgb(254,254,254)" stroke="rgb(254,254,254)" stroke-width="1" opacity="1" d="M 74.5 114 L 75.5 116 L 74.5 114 Z " /><path fill="rgb(254,254,254)" stroke="rgb(254,254,254)" stroke-width="1" opacity="1" d="M 111.5 114 L 112.5 116 L 111.5 114 Z " /><path fill="rgb(254,254,254)" stroke="rgb(254,254,254)" stroke-width="1" opacity="1" d="M 55.5 116 L 54.5 118 L 55.5 116 Z " /><path fill="rgb(254,254,254)" stroke="rgb(254,254,254)" stroke-width="1" opacity="1" d="M 66.5 116 L 67.5 118 L 66.5 116 Z " /><path fill="rgb(254,254,254)" stroke="rgb(254,254,254)" stroke-width="1" opacity="1" d="M 98.5 116 L 97.5 118 L 98.5 116 Z " /><path fill="rgb(254,254,254)" stroke="rgb(254,254,254)" stroke-width="1" opacity="1" d="M 102.5 116 L 103.5 118 L 102.5 116 Z " /><path fill="rgb(254,254,254)" stroke="rgb(254,254,254)" stroke-width="1" opacity="1" d="M 128.5 118 L 127.5 120 L 128.5 118 Z " /><path fill="rgb(254,254,254)" stroke="rgb(254,254,254)" stroke-width="1" opacity="1" d="M 176.5 118 L 173 122.5 L 170.5 126 L 160.5 132 L 162.5 129 L 165 129 Q 163.9 126.3 166.5 127 L 172 124 L 176.5 118 Z " /><path fill="rgb(254,254,254)" stroke="rgb(254,254,254)" stroke-width="1" opacity="1" d="M 83.5 120 L 86 120.5 L 83.5 121 L 83.5 120 Z " /><path fill="rgb(254,254,254)" stroke="rgb(254,254,254)" stroke-width="1" opacity="1" d="M 115.5 120 L 118 120.5 L 115.5 121 L 115.5 120 Z " /><path fill="rgb(254,254,254)" stroke="rgb(254,254,254)" stroke-width="1" opacity="1" d="M 19.5 121 L 34.5 133 L 42.5 137 L 52 139 L 51.5 141 Q 29.9 135.7 19.5 121 Z " /><path fill="rgb(254,254,254)" stroke="rgb(254,254,254)" stroke-width="1" opacity="1" d="M 81.5 121 L 82 129.5 L 83 130.5 L 83 132.5 L 84.5 135 L 86 135.5 L 84 136.5 Q 84.7 133.9 82 135 L 82 132.5 Q 79.3 129.2 80 122.5 L 81.5 121 Z " /><path fill="rgb(254,254,254)" stroke="rgb(254,254,254)" stroke-width="1" opacity="1" d="M 108.5 121 L 108 122.5 L 105 129.5 Q 109.3 134.2 117 135.5 L 112.5 136 L 103 129.5 L 108.5 121 Z " /><path fill="rgb(254,254,254)" stroke="rgb(254,254,254)" stroke-width="1" opacity="1" d="M 27.5 122 L 34 126 L 33.5 128 L 27.5 122 Z " /><path fill="rgb(254,254,254)" stroke="rgb(254,254,254)" stroke-width="1" opacity="1" d="M 76.5 122 Q 78.8 123.8 78 128.5 L 77 128.5 L 76.5 122 Z " /><path fill="rgb(254,254,254)" stroke="rgb(254,254,254)" stroke-width="1" opacity="1" d="M 123.5 122 L 124 124.5 L 123 124.5 L 123.5 122 Z " /><path fill="rgb(254,254,254)" stroke="rgb(254,254,254)" stroke-width="1" opacity="1" d="M 142.5 122 L 144 123.5 L 145 132.5 L 144 132.5 L 142.5 122 Z " /><path fill="rgb(254,254,254)" stroke="rgb(254,254,254)" stroke-width="1" opacity="1" d="M 179.5 122 L 180 123.5 Q 173.3 130.8 163.5 135 L 164.5 133 L 169.5 131 L 179.5 122 Z " /><path fill="rgb(254,254,254)" stroke="rgb(254,254,254)" stroke-width="1" opacity="1" d="M 53.5 123 L 54 127 L 52 126.5 L 53.5 123 Z " /><path fill="rgb(254,254,254)" stroke="rgb(254,254,254)" stroke-width="1" opacity="1" d="M 58.5 123 L 58 124.5 L 56.5 133 L 56 125.5 L 58.5 123 Z " /><path fill="rgb(254,254,254)" stroke="rgb(254,254,254)" stroke-width="1" opacity="1" d="M 101.5 123 L 103 123.5 L 99 126 Q 97.9 123.3 100.5 124 L 101.5 123 Z " /><path fill="rgb(254,254,254)" stroke="rgb(254,254,254)" stroke-width="1" opacity="1" d="M 93.5 124 L 96 125.5 L 97 129.5 L 96 132 L 93.5 132 L 87.5 136 L 87 134 L 89.5 134 L 96 129.5 L 93.5 124 Z " /><path fill="rgb(254,254,254)" stroke="rgb(254,254,254)" stroke-width="1" opacity="1" d="M 119.5 124 L 120 130.5 L 118.5 134 Q 115.8 132.8 118 131.5 L 119.5 124 Z " /><path fill="rgb(254,254,254)" stroke="rgb(254,254,254)" stroke-width="1" opacity="1" d="M 147.5 126 Q 150.3 128.8 149 135 L 158.5 132 L 158.5 133 L 152.5 136 L 149.5 136 L 148 134.5 L 147.5 126 Z " /><path fill="rgb(254,254,254)" stroke="rgb(254,254,254)" stroke-width="1" opacity="1" d="M 35.5 128 L 45.5 134 L 47.5 134 Q 49.8 133.3 49 135.5 L 47.5 135 L 39.5 132 L 35.5 128 Z " /><path fill="rgb(254,254,254)" stroke="rgb(254,254,254)" stroke-width="1" opacity="1" d="M 77.5 130 L 79 132.5 L 77 131.5 L 77.5 130 Z " /><path fill="rgb(254,254,254)" stroke="rgb(254,254,254)" stroke-width="1" opacity="1" d="M 122 130 L 124 130.5 L 121.5 136 L 121 134.5 L 122 130 Z " /><path fill="rgb(254,254,254)" stroke="rgb(254,254,254)" stroke-width="1" opacity="1" d="M 99.5 132 L 101.5 132 L 105.5 136 L 113 139.5 L 111.5 140 L 100.5 133 L 97.5 135 L 97 133 L 99.5 132 Z " /><path fill="rgb(254,254,254)" stroke="rgb(254,254,254)" stroke-width="1" opacity="1" d="M 52.5 133 L 53 135 L 50.5 136 L 52.5 133 Z " /><path fill="rgb(254,254,254)" stroke="rgb(254,254,254)" stroke-width="1" opacity="1" d="M 144.5 134 L 145 135.5 L 143 136.5 L 144.5 134 Z " /><path fill="rgb(254,254,254)" stroke="rgb(254,254,254)" stroke-width="1" opacity="1" d="M 78 135 Q 81 134 80 137 Q 77 138 78 135 Z " /><path fill="rgb(254,254,254)" stroke="rgb(254,254,254)" stroke-width="1" opacity="1" d="M 95.5 135 L 93.5 138 L 87.5 140 L 87.5 139 L 95.5 135 Z " /><path fill="rgb(254,254,254)" stroke="rgb(254,254,254)" stroke-width="1" opacity="1" d="M 161.5 135 L 160.5 137 L 149 141 Q 150.3 147.2 147.5 150 L 147 145.5 L 149 139 L 152.5 139 L 161.5 135 Z " /><path fill="rgb(254,254,254)" stroke="rgb(254,254,254)" stroke-width="1" opacity="1" d="M 61.5 137 L 64.5 138 L 76.5 137 L 76.5 138 L 74.5 139 L 62.5 139 L 61.5 137 Z " /><path fill="rgb(254,254,254)" stroke="rgb(254,254,254)" stroke-width="1" opacity="1" d="M 124.5 137 L 135.5 138 L 139.5 137 L 139.5 138 L 137.5 139 L 125.5 139 L 124.5 137 Z " /><path fill="rgb(254,254,254)" stroke="rgb(254,254,254)" stroke-width="1" opacity="1" d="M 57 141 L 60.5 142 L 75.5 142 L 80.5 141 L 92 155.5 L 90.5 156 L 80.5 142 L 77.5 143 L 59.5 143 Q 58.3 140.8 57 143.5 L 58 147.5 L 58 149.5 L 59 151.5 L 57 152.5 L 56 143.5 L 57 141 Z " /><path fill="rgb(254,254,254)" stroke="rgb(254,254,254)" stroke-width="1" opacity="1" d="M 119.5 141 L 124.5 142 L 139.5 142 L 144 141 L 145 145.5 L 142 158.5 L 139.5 161 L 141 158.5 L 144 143.5 Q 142.8 140.8 141.5 143 L 123.5 143 L 120.5 142 L 109 158 L 104.5 160 L 104.5 159 L 112 152.5 L 119.5 141 Z " /><path fill="rgb(254,254,254)" stroke="rgb(254,254,254)" stroke-width="1" opacity="1" d="M 86.5 142 L 97 154.5 L 94.5 153 L 92 151.5 L 86.5 142 Z " /><path fill="rgb(254,254,254)" stroke="rgb(254,254,254)" stroke-width="1" opacity="1" d="M 111 145 L 113 145.5 L 103.5 156 L 106 152.5 L 111 145 Z " /><path fill="rgb(254,254,254)" stroke="rgb(254,254,254)" stroke-width="1" opacity="1" d="M 52.5 148 Q 55.3 147.4 54 153.5 L 55 155.5 L 53 154.5 L 52.5 148 Z " /><path fill="rgb(254,254,254)" stroke="rgb(254,254,254)" stroke-width="1" opacity="1" d="M 146 152 L 148 152.5 L 146.5 157 L 146 152 Z " /><path fill="rgb(254,254,254)" stroke="rgb(254,254,254)" stroke-width="1" opacity="1" d="M 58.5 154 L 59.5 156 Q 56.7 156.7 58.5 154 Z " /><path fill="rgb(254,254,254)" stroke="rgb(254,254,254)" stroke-width="1" opacity="1" d="M 97.5 156 L 100.5 157 L 102 156.5 L 100.5 159 L 97.5 156 Z " /><path fill="rgb(254,254,254)" stroke="rgb(254,254,254)" stroke-width="1" opacity="1" d="M 92.5 157 L 95 158.5 Q 94.3 160.8 96.5 160 L 96 161.5 L 94.5 164 L 84.5 169 L 76.5 171 L 76.5 170 L 86.5 167 L 95 161.5 L 92.5 157 Z " /><path fill="rgb(254,254,254)" stroke="rgb(254,254,254)" stroke-width="1" opacity="1" d="M 60.5 160 L 61.5 162 Q 58.7 162.7 60.5 160 Z " /><path fill="rgb(254,254,254)" stroke="rgb(254,254,254)" stroke-width="1" opacity="1" d="M 104.5 161 L 114.5 167 L 117.5 167 L 125 170.5 L 122.5 171 L 106 164 Q 107.1 161.3 104.5 162 L 104.5 161 Z " /><path fill="rgb(254,254,254)" stroke="rgb(254,254,254)" stroke-width="1" opacity="1" d="M 56.5 162 L 58 164.5 L 57 164.5 L 56.5 162 Z " /><path fill="rgb(254,254,254)" stroke="rgb(254,254,254)" stroke-width="1" opacity="1" d="M 139.5 162 L 140 163.5 L 137 165.5 L 139.5 162 Z " /><path fill="rgb(254,254,254)" stroke="rgb(254,254,254)" stroke-width="1" opacity="1" d="M 61.5 163 L 64 166.5 L 62 165.5 L 61.5 163 Z " /><path fill="rgb(254,254,254)" stroke="rgb(254,254,254)" stroke-width="1" opacity="1" d="M 99.5 164 L 111 169 L 110.5 171 L 99.5 165 L 94.5 169 L 94 167.5 L 99.5 164 Z " /><path fill="rgb(254,254,254)" stroke="rgb(254,254,254)" stroke-width="1" opacity="1" d="M 143.5 164 L 144 165.5 L 142 166.5 L 143.5 164 Z " /><path fill="rgb(254,254,254)" stroke="rgb(254,254,254)" stroke-width="1" opacity="1" d="M 57.5 166 L 60 167.5 L 64 176.5 L 63 176.5 L 57.5 166 Z " /><path fill="rgb(254,254,254)" stroke="rgb(254,254,254)" stroke-width="1" opacity="1" d="M 63.5 168 Q 65.8 167.3 65 169.5 L 66 171.5 L 65 171.5 L 63.5 168 Z " /><path fill="rgb(254,254,254)" stroke="rgb(254,254,254)" stroke-width="1" opacity="1" d="M 92.5 168 L 93 170 L 90 169.5 L 92.5 168 Z " /><path fill="rgb(254,254,254)" stroke="rgb(254,254,254)" stroke-width="1" opacity="1" d="M 141.5 168 L 142 169.5 L 136.5 177 L 138 174.5 L 141.5 168 Z " /><path fill="rgb(254,254,254)" stroke="rgb(254,254,254)" stroke-width="1" opacity="1" d="M 136.5 169 L 134.5 172 L 136.5 169 Z " /><path fill="rgb(254,254,254)" stroke="rgb(254,254,254)" stroke-width="1" opacity="1" d="M 88.5 170 L 86.5 173 L 85.5 172 L 83 173.5 L 88.5 170 Z " /><path fill="rgb(254,254,254)" stroke="rgb(254,254,254)" stroke-width="1" opacity="1" d="M 112.5 170 L 116 171 L 115.5 173 L 112 172 L 112.5 170 Z " /><path fill="rgb(254,254,254)" stroke="rgb(254,254,254)" stroke-width="1" opacity="1" d="M 70.5 171 L 73 171.5 L 70.5 172 L 70.5 171 Z " /><path fill="rgb(254,254,254)" stroke="rgb(254,254,254)" stroke-width="1" opacity="1" d="M 127.5 171 L 131 171.5 L 127.5 172 L 127.5 171 Z " /><path fill="rgb(254,254,254)" stroke="rgb(254,254,254)" stroke-width="1" opacity="1" d="M 118.5 173 Q 121.8 171.9 121 174.5 L 119.5 174 L 118.5 173 Z " /><path fill="rgb(254,254,254)" stroke="rgb(254,254,254)" stroke-width="1" opacity="1" d="M 76.5 174 L 78 174.5 L 75.5 176 L 67.5 177 L 67.5 176 L 76.5 174 Z " /><path fill="rgb(254,254,254)" stroke="rgb(254,254,254)" stroke-width="1" opacity="1" d="M 123.5 174 L 135 176.5 L 130.5 177 L 123.5 175 L 123.5 174 Z " /><path fill="rgb(237,236,252)" stroke="rgb(237,236,252)" stroke-width="1" opacity="1" d="M 40.5 24 L 45.5 25 L 48.5 24 L 53.5 25 L 56.5 24 L 61.5 25 L 64.5 24 L 69.5 25 L 72.5 24 L 77.5 25 L 80.5 24 L 84.5 24 L 86 25.5 L 76 37.5 L 74 43 L 67.5 42 L 55.5 42 L 44.5 44 L 34.5 49 L 35 47.5 L 34.5 46 L 17 46.5 L 36.5 25 L 40.5 24 Z " /><path fill="rgb(237,236,252)" stroke="rgb(237,236,252)" stroke-width="1" opacity="1" d="M 114.5 24 L 117.5 25 L 120.5 24 L 125.5 25 L 128.5 24 L 133.5 25 L 136.5 24 L 141.5 25 L 144.5 24 L 149.5 25 L 152.5 24 L 157.5 25 L 160.5 24 L 162.5 24 L 176 37.5 L 182 46.5 L 166 46.5 L 167 49.5 L 166 49.5 L 164.5 47 L 152.5 43 L 133.5 42 L 127 43 L 124 36.5 L 114.5 24 Z " /><path fill="rgb(237,236,252)" stroke="rgb(237,236,252)" stroke-width="1" opacity="1" d="M 99.5 25 Q 109.8 29.2 116 37.5 L 120 45 L 112.5 48 L 110.5 46 L 90.5 46 L 88.5 48 L 87.5 47 L 80 44.5 L 94.5 28 L 99.5 25 Z " /><path fill="rgb(237,236,252)" stroke="rgb(237,236,252)" stroke-width="1" opacity="1" d="M 109.5 48 L 111 48.5 L 106.5 51 L 107.5 49 L 109.5 48 Z " /><path fill="rgb(237,236,252)" stroke="rgb(237,236,252)" stroke-width="1" opacity="1" d="M 55.5 49 L 68 49.5 L 55.5 50 L 55.5 49 Z " /><path fill="rgb(237,236,252)" stroke="rgb(237,236,252)" stroke-width="1" opacity="1" d="M 132.5 49 L 146 49.5 L 132 50 L 131.5 52 L 131 50.5 L 132.5 49 Z " /><path fill="rgb(237,236,252)" stroke="rgb(237,236,252)" stroke-width="1" opacity="1" d="M 49.5 50 L 52 50.5 L 49.5 51 L 49.5 50 Z " /><path fill="rgb(237,236,252)" stroke="rgb(237,236,252)" stroke-width="1" opacity="1" d="M 94.5 50 L 95.5 52 L 94.5 50 Z " /><path fill="rgb(237,236,252)" stroke="rgb(237,236,252)" stroke-width="1" opacity="1" d="M 149.5 50 L 152 50.5 L 149.5 51 L 149.5 50 Z " /><path fill="rgb(237,236,252)" stroke="rgb(237,236,252)" stroke-width="1" opacity="1" d="M 77.5 51 L 76.5 53 L 77.5 51 Z " /><path fill="rgb(237,236,252)" stroke="rgb(237,236,252)" stroke-width="1" opacity="1" d="M 122.5 51 L 125 52.5 L 123.5 52 L 122.5 51 Z " /><path fill="rgb(237,236,252)" stroke="rgb(237,236,252)" stroke-width="1" opacity="1" d="M 101.5 53 L 100.5 55 L 101.5 53 Z " /><path fill="rgb(237,236,252)" stroke="rgb(237,236,252)" stroke-width="1" opacity="1" d="M 107.5 61 L 109.5 64 L 107.5 61 Z " /><path fill="rgb(237,236,252)" stroke="rgb(237,236,252)" stroke-width="1" opacity="1" d="M 91.5 63 L 90.5 65 L 91.5 63 Z " /><path fill="rgb(237,236,252)" stroke="rgb(237,236,252)" stroke-width="1" opacity="1" d="M 99.5 64 L 97.5 67 L 99.5 64 Z " /><path fill="rgb(237,236,252)" stroke="rgb(237,236,252)" stroke-width="1" opacity="1" d="M 135.5 66 L 136 68.5 L 135 68.5 L 135.5 66 Z " /><path fill="rgb(237,236,252)" stroke="rgb(237,236,252)" stroke-width="1" opacity="1" d="M 159.5 66 L 160 68.5 L 159 68.5 L 159.5 66 Z " /><path fill="rgb(237,236,252)" stroke="rgb(237,236,252)" stroke-width="1" opacity="1" d="M 34.5 67 L 35 69.5 L 34 69.5 L 34.5 67 Z " /><path fill="rgb(237,236,252)" stroke="rgb(237,236,252)" stroke-width="1" opacity="1" d="M 73.5 71 L 79 71.5 L 73.5 72 L 73.5 71 Z " /><path fill="rgb(237,236,252)" stroke="rgb(237,236,252)" stroke-width="1" opacity="1" d="M 121.5 71 L 128 71.5 L 121.5 72 L 121.5 71 Z " /><path fill="rgb(237,236,252)" stroke="rgb(237,236,252)" stroke-width="1" opacity="1" d="M 108.5 74 L 107.5 76 L 108.5 74 Z " /><path fill="rgb(237,236,252)" stroke="rgb(237,236,252)" stroke-width="1" opacity="1" d="M 96.5 77 L 97.5 79 L 96.5 77 Z " /><path fill="rgb(237,236,252)" stroke="rgb(237,236,252)" stroke-width="1" opacity="1" d="M 83.5 83 L 84 86.5 L 83 86.5 L 83.5 83 Z " /><path fill="rgb(237,236,252)" stroke="rgb(237,236,252)" stroke-width="1" opacity="1" d="M 93.5 83 L 95.5 86 L 93.5 83 Z " /><path fill="rgb(237,236,252)" stroke="rgb(237,236,252)" stroke-width="1" opacity="1" d="M 161.5 86 L 165.5 91 L 161.5 86 Z " /><path fill="rgb(237,236,252)" stroke="rgb(237,236,252)" stroke-width="1" opacity="1" d="M 106.5 87 L 109.5 88 L 111 87.5 L 107.5 89 L 106.5 87 Z " /><path fill="rgb(237,236,252)" stroke="rgb(237,236,252)" stroke-width="1" opacity="1" d="M 167.5 92 L 168.5 94 L 167.5 92 Z " /><path fill="rgb(237,236,252)" stroke="rgb(237,236,252)" stroke-width="1" opacity="1" d="M 40.5 94 L 37.5 98 L 40.5 94 Z " /><path fill="rgb(237,236,252)" stroke="rgb(237,236,252)" stroke-width="1" opacity="1" d="M 131.5 94 L 132.5 96 L 131.5 94 Z " /><path fill="rgb(237,236,252)" stroke="rgb(237,236,252)" stroke-width="1" opacity="1" d="M 55.5 100 L 57.5 103 L 55.5 100 Z " /><path fill="rgb(237,236,252)" stroke="rgb(237,236,252)" stroke-width="1" opacity="1" d="M 127.5 100 L 130 101.5 L 128.5 101 L 123.5 105 L 127.5 100 Z " /><path fill="rgb(237,236,252)" stroke="rgb(237,236,252)" stroke-width="1" opacity="1" d="M 49.5 103 L 50.5 105 L 49.5 103 Z " /><path fill="rgb(237,236,252)" stroke="rgb(237,236,252)" stroke-width="1" opacity="1" d="M 78.5 105 L 79.5 107 L 78.5 105 Z " /><path fill="rgb(237,236,252)" stroke="rgb(237,236,252)" stroke-width="1" opacity="1" d="M 133.5 105 L 134.5 107 L 133.5 105 Z " /><path fill="rgb(237,236,252)" stroke="rgb(237,236,252)" stroke-width="1" opacity="1" d="M 66.5 106 L 65.5 108 L 66.5 106 Z " /><path fill="rgb(237,236,252)" stroke="rgb(237,236,252)" stroke-width="1" opacity="1" d="M 148.5 106 L 147.5 108 L 148.5 106 Z " /><path fill="rgb(237,236,252)" stroke="rgb(237,236,252)" stroke-width="1" opacity="1" d="M 102.5 117 L 103.5 119 L 102.5 117 Z " /><path fill="rgb(237,236,252)" stroke="rgb(237,236,252)" stroke-width="1" opacity="1" d="M 171.5 122 L 170.5 124 L 171.5 122 Z " /><path fill="rgb(237,236,252)" stroke="rgb(237,236,252)" stroke-width="1" opacity="1" d="M 30.5 123 L 31.5 125 L 30.5 123 Z " /><path fill="rgb(237,236,252)" stroke="rgb(237,236,252)" stroke-width="1" opacity="1" d="M 174.5 128 L 173.5 130 L 174.5 128 Z " /><path fill="rgb(237,236,252)" stroke="rgb(237,236,252)" stroke-width="1" opacity="1" d="M 51.5 129 L 52 131.5 L 51 131.5 L 51.5 129 Z " /><path fill="rgb(237,236,252)" stroke="rgb(237,236,252)" stroke-width="1" opacity="1" d="M 149.5 132 L 151 134.5 L 149 133.5 L 149.5 132 Z " /><path fill="rgb(237,236,252)" stroke="rgb(237,236,252)" stroke-width="1" opacity="1" d="M 63.5 143 L 66 143.5 L 63.5 144 L 63.5 143 Z " /><path fill="rgb(237,236,252)" stroke="rgb(237,236,252)" stroke-width="1" opacity="1" d="M 70.5 143 L 74 143.5 L 70.5 144 L 70.5 143 Z " /><path fill="rgb(237,236,252)" stroke="rgb(237,236,252)" stroke-width="1" opacity="1" d="M 127.5 143 L 130 143.5 L 127.5 144 L 127.5 143 Z " /><path fill="rgb(237,236,252)" stroke="rgb(237,236,252)" stroke-width="1" opacity="1" d="M 134.5 143 L 137 143.5 L 134.5 144 L 134.5 143 Z " /><path fill="rgb(237,236,252)" stroke="rgb(237,236,252)" stroke-width="1" opacity="1" d="M 94.5 151 L 95.5 153 L 94.5 151 Z " /><path fill="rgb(237,236,252)" stroke="rgb(237,236,252)" stroke-width="1" opacity="1" d="M 134.5 177 L 137 177.5 L 134.5 178 L 134.5 177 Z " /><path fill="rgb(255,255,255)" stroke="rgb(255,255,255)" stroke-width="1" opacity="1" d="M 98.5 17 L 105.5 19 L 120 32.5 L 127.5 44 Q 135.4 41.4 147.5 43 L 166 48 L 166 68.5 Q 163.8 69.8 165 74.5 L 161 83.5 L 161 87.5 L 165 90.5 Q 164.3 92.8 166.5 92 L 168 96 Q 170.7 94.9 170 97.5 Q 178.7 105.8 182 119.5 L 181 122 L 163 134.5 L 162.5 136 L 160.5 136 L 149 139 L 147 149.5 L 148 152 L 146 152 L 146 159.5 L 144 160 L 144 161.5 L 145 162.5 L 142 165.5 L 143 167.5 L 140 169.5 L 135.5 177 L 131.5 175 L 123.5 174 L 121 175 Q 122.3 172 118.5 173 Q 117.3 175.3 116 172.5 Q 116.8 169.9 113.5 171 L 111 170.5 Q 111.8 168.3 109.5 169 L 99.5 164 L 94 167.5 L 93.5 169 L 91.5 169 Q 89.3 168.3 90 170.5 L 87.5 171 L 85 171.5 L 85.5 173 L 81.5 173 L 78.5 175 L 76.5 174 L 64 177 L 58.5 166 L 57 165.5 L 58 163.5 L 56 163.5 L 56 159.5 L 54 156.5 L 55 154.5 L 54 148 L 52 147.5 L 52 139 L 48.5 139 L 34.5 133 L 19 120.5 Q 24.2 99.7 38.5 88 Q 41.5 88.9 40 84.5 L 36 74.5 L 34 55.5 L 35 54.5 L 35 48 L 47.5 44 L 69.5 43 L 73.5 44 L 84 28 L 98.5 17 Z M 101 23 L 88 32 L 79 45 L 100 55 L 118 46 L 121 46 L 121 44 L 116 37 L 101 23 Z M 140 48 L 139 49 L 130 49 Q 135 59 135 74 L 142 75 L 155 82 L 156 84 L 160 73 L 161 54 L 159 51 L 151 49 L 141 49 L 140 48 Z M 52 49 L 40 52 L 40 68 L 44 83 Q 52 77 65 74 L 66 73 L 67 60 L 70 53 L 70 49 L 52 49 Z M 76 50 L 72 62 L 71 72 L 81 72 L 83 74 L 87 73 Q 89 64 96 60 Q 88 52 76 50 Z M 124 50 L 109 56 L 105 60 Q 111 64 113 72 L 118 74 L 121 72 L 130 72 L 127 56 L 124 50 Z M 100 63 L 92 73 L 92 76 L 100 81 L 109 76 L 106 69 L 100 63 Z M 76 77 L 71 78 L 72 87 L 74 91 Q 73 93 76 92 L 78 92 L 78 90 L 84 89 L 85 80 L 84 78 L 76 77 Z M 124 77 Q 122 79 118 78 L 116 80 L 117 84 L 116 89 L 120 90 L 123 90 Q 122 93 126 92 Q 129 91 128 86 Q 131 84 129 83 L 130 78 L 124 77 Z M 65 79 L 60 81 L 58 81 L 47 89 L 56 103 L 61 105 L 67 98 Q 69 99 68 97 L 71 95 L 68 91 L 69 89 L 67 88 L 66 83 Q 67 78 65 79 Z M 135 79 L 134 87 L 131 93 L 132 97 L 135 98 L 141 105 L 144 104 L 149 98 Q 148 95 151 96 L 150 95 L 154 90 L 153 87 Q 150 88 151 85 L 135 79 Z M 89 81 Q 88 87 91 90 L 94 89 Q 96 89 96 85 L 92 81 L 89 81 Z M 110 81 L 107 83 Q 102 85 106 88 Q 105 90 109 89 Q 110 91 111 89 L 111 82 L 110 81 Z M 42 92 L 38 96 Q 39 98 36 97 L 25 118 L 27 123 L 32 126 Q 33 129 35 127 L 35 129 L 37 128 L 36 130 L 44 133 L 46 133 L 45 135 L 48 135 L 51 136 L 53 135 L 52 133 Q 50 126 54 127 L 53 123 L 54 119 Q 57 117 55 116 L 57 112 L 47 99 Q 48 96 45 97 L 44 94 L 42 92 Z M 159 92 Q 153 102 144 110 L 147 120 L 146 123 L 148 123 L 147 127 L 148 135 L 150 136 L 155 135 L 154 134 L 156 134 L 158 133 Q 160 134 159 132 L 161 132 L 165 130 L 164 129 L 166 129 L 171 126 Q 173 125 171 124 L 173 124 L 173 123 L 177 118 Q 174 119 175 116 L 175 114 L 173 113 L 172 109 Q 173 106 170 107 L 169 104 L 162 94 L 159 92 Z M 84 94 L 78 97 L 82 101 Q 86 102 87 99 L 86 96 L 84 94 Z M 117 94 L 114 97 Q 113 100 117 101 L 121 100 L 123 96 L 117 94 Z M 70 100 L 64 110 L 67 111 Q 69 110 68 113 L 70 112 L 76 116 L 78 114 L 80 105 L 75 102 L 75 100 L 70 100 Z M 127 100 L 121 106 L 123 115 L 127 115 L 136 110 L 135 106 L 130 100 L 127 100 Z M 88 108 L 84 109 L 83 115 Q 88 116 90 114 L 88 108 Z M 114 108 L 111 111 Q 110 115 113 116 L 118 115 L 116 109 L 114 108 Z M 61 114 L 59 123 L 56 126 Q 54 132 57 134 L 56 136 Q 55 139 61 137 L 63 137 L 63 139 L 75 139 L 80 137 Q 81 134 78 135 L 79 132 Q 75 130 78 129 Q 79 123 76 122 Q 77 118 73 120 L 73 118 L 71 119 L 61 114 Z M 139 114 L 131 119 L 129 118 Q 127 121 124 120 L 123 123 L 124 126 Q 126 131 122 130 L 121 136 L 126 139 L 138 139 Q 139 136 144 137 L 145 135 L 145 133 L 144 124 L 140 117 Q 141 113 139 114 Z M 99 116 L 97 118 Q 96 122 99 124 Q 98 127 101 126 Q 105 124 102 123 L 104 118 Q 103 115 99 116 Z M 84 120 L 80 123 L 81 132 L 83 131 L 82 133 L 82 135 Q 85 134 84 137 L 87 135 L 88 136 L 90 135 L 89 134 L 91 134 L 96 132 L 97 130 L 96 126 L 93 124 L 92 122 L 92 120 L 84 120 Z M 110 120 L 103 130 L 113 136 Q 118 138 117 134 L 119 134 L 120 131 L 119 122 L 118 120 L 110 120 Z M 100 132 L 99 133 Q 96 132 97 136 L 96 135 L 87 139 L 86 143 L 92 152 L 98 155 L 97 157 L 101 159 L 101 158 L 104 156 L 110 149 Q 114 146 113 144 Q 115 145 114 141 Q 111 137 106 136 Q 104 132 103 135 L 103 134 L 100 132 Z M 57 141 Q 55 143 56 149 L 58 149 L 57 153 L 59 153 L 58 155 Q 57 157 60 156 Q 58 158 61 160 L 60 161 Q 59 163 62 162 L 61 164 L 62 166 Q 65 167 63 169 L 65 172 L 67 171 L 71 172 Q 74 173 73 170 L 77 171 L 87 168 L 86 167 L 88 167 L 95 164 L 96 162 L 97 160 Q 94 161 95 159 L 92 157 L 92 156 L 81 141 L 76 142 L 61 142 L 57 141 Z M 120 141 L 118 144 L 118 146 L 117 145 L 112 153 L 105 159 L 105 162 Q 107 161 106 164 L 113 167 L 115 166 L 114 168 L 123 171 L 128 170 L 128 172 L 132 171 L 135 172 Q 139 170 136 169 L 138 168 L 137 167 L 140 163 L 140 159 L 142 159 L 145 146 L 144 141 L 140 142 L 125 142 L 120 141 Z " /><path fill="rgb(212,211,223)" stroke="rgb(212,211,223)" stroke-width="1" opacity="0.8823529411764706" d="M 33.5 27 L 28.5 33 L 33.5 27 Z " /><path fill="rgb(213,212,248)" stroke="rgb(213,212,248)" stroke-width="1" opacity="1" d="M 8.5 68 L 10.5 70 L 12.5 68 L 14.5 70 L 16.5 68 L 18.5 70 L 20.5 68 L 22.5 70 L 24.5 68 L 26.5 70 L 28.5 68 L 30.5 70 Q 32.3 66.3 34 69.5 Q 35 79.5 39 86.5 L 28 96.5 Q 30.3 97.7 27.5 99 L 3.5 99 L 2 97.5 L 3 80.5 L 5 72.5 L 8.5 68 Z " /><path fill="rgb(213,212,248)" stroke="rgb(213,212,248)" stroke-width="1" opacity="1" d="M 44.5 68 L 46.5 70 L 48.5 68 L 50.5 70 L 52.5 68 L 54.5 70 L 56.5 68 L 58.5 70 L 60.5 68 Q 62.3 71.1 64 69.5 Q 65.7 74.3 61.5 73 L 45.5 81 L 44 79.5 L 42 70.5 L 44.5 68 Z " /><path fill="rgb(213,212,248)" stroke="rgb(213,212,248)" stroke-width="1" opacity="1" d="M 76.5 68 L 78.5 70 L 80.5 68 L 82.5 70 Q 84.3 66.3 86 69.5 Q 87.3 73.3 83.5 72 L 82.5 71 L 72 70.5 L 76.5 68 Z " /><path fill="rgb(213,212,248)" stroke="rgb(213,212,248)" stroke-width="1" opacity="1" d="M 100.5 68 Q 102 71.5 103.5 69 Q 105.8 68.3 105 70.5 L 108 74.5 L 100.5 80 L 93 74.5 L 96.5 69 L 98.5 70 L 100.5 68 Z " /><path fill="rgb(213,212,248)" stroke="rgb(213,212,248)" stroke-width="1" opacity="1" d="M 116.5 68 L 118.5 70 L 120.5 68 Q 122.5 72 124.5 68 L 129 70.5 L 115.5 72 Q 112 70 116.5 68 Z " /><path fill="rgb(213,212,248)" stroke="rgb(213,212,248)" stroke-width="1" opacity="1" d="M 136.5 68 L 138.5 70 L 140.5 68 L 142.5 70 L 144.5 68 L 146.5 70 L 148.5 68 L 150.5 70 L 152.5 68 L 154.5 70 Q 156.3 66.3 158 69.5 L 158 74.5 L 156 81 L 136 71.5 L 136.5 68 Z " /><path fill="rgb(213,212,248)" stroke="rgb(213,212,248)" stroke-width="1" opacity="1" d="M 168.5 68 L 170.5 70 L 172.5 68 L 174.5 70 L 176.5 68 L 178.5 70 L 180.5 68 L 182.5 70 L 184.5 68 L 186.5 70 L 188.5 68 L 190.5 70 L 193 68.5 L 197 83.5 L 198 96.5 L 197.5 99 L 174 98.5 L 173.5 100 L 162 85.5 L 168.5 68 Z " /><path fill="rgb(213,212,248)" stroke="rgb(213,212,248)" stroke-width="1" opacity="1" d="M 72 79 L 84 79.5 Q 81.3 81.3 83 87.5 L 81.5 89 L 75.5 91 L 72 79 Z " /><path fill="rgb(213,212,248)" stroke="rgb(213,212,248)" stroke-width="1" opacity="1" d="M 117 79 L 129 79.5 L 125.5 91 L 117 87.5 L 117 79 Z " /><path fill="rgb(213,212,248)" stroke="rgb(213,212,248)" stroke-width="1" opacity="1" d="M 64.5 80 L 69 94.5 L 64 98.5 L 61.5 102 L 63 99.5 L 62.5 98 L 56 98.5 L 55.5 100 L 48 88 L 64.5 80 Z " /><path fill="rgb(213,212,248)" stroke="rgb(213,212,248)" stroke-width="1" opacity="1" d="M 136.5 80 L 153 88.5 L 143.5 102 L 145 99.5 L 144.5 98 L 138 98.5 L 139 100.5 L 132 94.5 L 136.5 80 Z " /><path fill="rgb(213,212,248)" stroke="rgb(213,212,248)" stroke-width="1" opacity="1" d="M 90 83 Q 93.8 82.3 95 85.5 L 93.5 88 L 90 88 L 90 83 Z " /><path fill="rgb(213,212,248)" stroke="rgb(213,212,248)" stroke-width="1" opacity="1" d="M 108.5 83 L 110 83 L 110 88 L 106 86.5 L 108.5 83 Z " /><path fill="rgb(213,212,248)" stroke="rgb(213,212,248)" stroke-width="1" opacity="1" d="M 41.5 94 L 44 95.5 L 46 98.5 L 38.5 98 L 36 99.5 L 41.5 94 Z " /><path fill="rgb(213,212,248)" stroke="rgb(213,212,248)" stroke-width="1" opacity="1" d="M 158.5 94 L 164 98.5 L 155 98.5 L 158.5 94 Z " /><path fill="rgb(213,212,248)" stroke="rgb(213,212,248)" stroke-width="1" opacity="1" d="M 80 96 Q 83.8 95 85 97.5 L 84.5 100 L 82.5 100 L 80 97.5 L 80 96 Z " /><path fill="rgb(213,212,248)" stroke="rgb(213,212,248)" stroke-width="1" opacity="1" d="M 117.5 96 Q 121.9 94.5 121 97.5 L 117.5 101 L 115 98.5 Q 114.3 96.3 116.5 97 L 117.5 96 Z " /><path fill="rgb(213,212,248)" stroke="rgb(213,212,248)" stroke-width="1" opacity="1" d="M 73.5 101 L 76.5 105 L 73.5 101 Z " /><path fill="rgb(213,212,248)" stroke="rgb(213,212,248)" stroke-width="1" opacity="1" d="M 70.5 102 L 68.5 105 L 70.5 102 Z " /><path fill="rgb(213,212,248)" stroke="rgb(213,212,248)" stroke-width="1" opacity="1" d="M 126.5 102 L 124.5 105 L 126.5 102 Z " /><path fill="rgb(213,212,248)" stroke="rgb(213,212,248)" stroke-width="1" opacity="1" d="M 152.5 102 L 151.5 104 L 152.5 102 Z " /><path fill="rgb(213,212,248)" stroke="rgb(213,212,248)" stroke-width="1" opacity="1" d="M 50.5 105 L 54.5 110 L 50.5 105 Z " /><path fill="rgb(213,212,248)" stroke="rgb(213,212,248)" stroke-width="1" opacity="1" d="M 65.5 108 L 66.5 110 L 65.5 108 Z " /><path fill="rgb(213,212,248)" stroke="rgb(213,212,248)" stroke-width="1" opacity="1" d="M 87.5 110 L 88.5 112 L 87.5 110 Z " /><path fill="rgb(213,212,248)" stroke="rgb(213,212,248)" stroke-width="1" opacity="1" d="M 62.5 115 L 61.5 117 L 62.5 115 Z " /><path fill="rgb(213,212,248)" stroke="rgb(213,212,248)" stroke-width="1" opacity="1" d="M 138.5 115 L 139.5 117 L 138.5 115 Z " /><path fill="rgb(213,212,248)" stroke="rgb(213,212,248)" stroke-width="1" opacity="1" d="M 26.5 119 L 29.5 123 L 26.5 119 Z " /><path fill="rgb(213,212,248)" stroke="rgb(213,212,248)" stroke-width="1" opacity="1" d="M 110.5 120 L 109.5 122 L 110.5 120 Z " /><path fill="rgb(213,212,248)" stroke="rgb(213,212,248)" stroke-width="1" opacity="1" d="M 75.5 121 L 76 125.5 L 75 125.5 L 75.5 121 Z " /><path fill="rgb(213,212,248)" stroke="rgb(213,212,248)" stroke-width="1" opacity="1" d="M 83.5 121 L 86 121.5 L 83.5 122 L 83.5 121 Z " /><path fill="rgb(213,212,248)" stroke="rgb(213,212,248)" stroke-width="1" opacity="1" d="M 115.5 121 L 118 121.5 L 115.5 122 L 115.5 121 Z " /><path fill="rgb(213,212,248)" stroke="rgb(213,212,248)" stroke-width="1" opacity="1" d="M 182.5 121 L 177.5 127 L 182.5 121 Z " /><path fill="rgb(213,212,248)" stroke="rgb(213,212,248)" stroke-width="1" opacity="1" d="M 99.5 122 L 100.5 124 L 99.5 122 Z " /><path fill="rgb(213,212,248)" stroke="rgb(213,212,248)" stroke-width="1" opacity="1" d="M 82.5 124 L 83 126.5 L 82 126.5 L 82.5 124 Z " /><path fill="rgb(213,212,248)" stroke="rgb(213,212,248)" stroke-width="1" opacity="1" d="M 24.5 127 L 25.5 129 L 24.5 127 Z " /><path fill="rgb(213,212,248)" stroke="rgb(213,212,248)" stroke-width="1" opacity="1" d="M 88.5 154 L 90.5 157 L 88.5 154 Z " /><path fill="rgb(213,212,248)" stroke="rgb(213,212,248)" stroke-width="1" opacity="1" d="M 92.5 158 L 94.5 161 L 92.5 158 Z " /><path fill="rgb(186,185,245)" stroke="rgb(186,185,245)" stroke-width="1" opacity="0.996078431372549" d="M 4.5 122 L 17.5 123 L 35.5 136 L 51 142.5 Q 51.8 146.3 49.5 147 L 39.5 147 L 36.5 146 L 31.5 147 L 28.5 146 L 13 146.5 Q 6.7 135.3 4.5 122 Z " /><path fill="rgb(186,185,245)" stroke="rgb(186,185,245)" stroke-width="1" opacity="0.996078431372549" d="M 32.5 122 L 51 122.5 L 51 132.5 L 49.5 134 L 40.5 130 L 33 124.5 L 32.5 122 Z " /><path fill="rgb(186,185,245)" stroke="rgb(186,185,245)" stroke-width="1" opacity="0.996078431372549" d="M 60.5 122 L 75 122.5 L 75 128.5 L 77 136 L 66.5 137 L 65.5 136 L 58 136 L 59 125.5 L 61 123.5 L 60.5 122 Z " /><path fill="rgb(186,185,245)" stroke="rgb(186,185,245)" stroke-width="1" opacity="0.996078431372549" d="M 86.5 122 L 91 122.5 L 95 128.5 Q 91.3 133.4 84 134 L 83 123.5 Q 84.8 125.1 86.5 122 Z " /><path fill="rgb(186,185,245)" stroke="rgb(186,185,245)" stroke-width="1" opacity="0.996078431372549" d="M 110.5 122 L 118 123.5 L 117 132.5 L 115.5 134 L 106 128.5 L 110.5 122 Z " /><path fill="rgb(186,185,245)" stroke="rgb(186,185,245)" stroke-width="1" opacity="0.996078431372549" d="M 126.5 122 L 141 122.5 Q 138.5 124 142 125.5 L 143 136 L 130.5 137 L 123 135.5 L 127 123.5 L 126.5 122 Z " /><path fill="rgb(186,185,245)" stroke="rgb(186,185,245)" stroke-width="1" opacity="0.996078431372549" d="M 150.5 122 L 169 122.5 L 168 125 L 150.5 134 L 149 123.5 L 150.5 122 Z " /><path fill="rgb(186,185,245)" stroke="rgb(186,185,245)" stroke-width="1" opacity="0.996078431372549" d="M 182.5 122 L 195 122.5 Q 193.2 137.7 185.5 147 L 151.5 147 L 150 145.5 Q 149.3 141.8 151.5 141 Q 171.7 136.2 182.5 122 Z " /><path fill="rgb(186,185,245)" stroke="rgb(186,185,245)" stroke-width="1" opacity="0.996078431372549" d="M 100.5 134 Q 105 139.5 113 141.5 L 109.5 146 L 108 146.5 Q 110.3 147.8 107.5 149 L 106.5 146 L 91 146.5 L 88 141.5 L 100.5 134 Z " /><path fill="rgb(186,185,245)" stroke="rgb(186,185,245)" stroke-width="1" opacity="0.996078431372549" d="M 58.5 143 L 59.5 144 L 77.5 144 L 81 143 L 82 146.5 L 59.5 147 L 58 145.5 L 58.5 143 Z " /><path fill="rgb(186,185,245)" stroke="rgb(186,185,245)" stroke-width="1" opacity="0.996078431372549" d="M 120 143 L 123.5 144 L 142 144 L 141.5 147 L 119.5 147 L 118 146.5 L 120 143 Z " /><path fill="rgb(186,185,245)" stroke="rgb(186,185,245)" stroke-width="1" opacity="0.996078431372549" d="M 93.5 149 L 99.5 156 L 93.5 149 Z " /><path fill="rgb(186,185,245)" stroke="rgb(186,185,245)" stroke-width="1" opacity="0.996078431372549" d="M 113.5 153 L 112.5 155 L 113.5 153 Z " /><path fill="rgb(196,195,246)" stroke="rgb(196,195,246)" stroke-width="1" opacity="0.996078431372549" d="M 4.5 96 Q 6.7 101.3 9 97.5 L 8.5 96 Q 10.7 101.3 13 97.5 L 12.5 96 Q 14.7 101.3 17 97.5 L 16.5 96 Q 18.8 101.3 21 97.5 L 20.5 96 Q 22.7 101.3 25 97.5 L 24.5 96 L 27 99.5 Q 19.8 107.8 18 121.5 L 20.5 125 L 17.5 123 L 12.5 124 L 10.5 122 L 6.5 124 L 4 121.5 L 2 111.5 L 2 98.5 L 5 97.5 L 4.5 96 Z " /><path fill="rgb(196,195,246)" stroke="rgb(196,195,246)" stroke-width="1" opacity="0.996078431372549" d="M 40.5 96 L 47 100.5 L 54.5 110 Q 56.8 109.3 56 111.5 Q 52 117 51.5 126 L 50.5 122 L 48.5 124 L 44.5 124 L 42.5 122 L 40.5 124 L 36.5 124 L 34.5 122 L 33 123.5 L 32.5 125 L 26 117.5 L 34 102.5 L 38.5 98 Q 39.8 100.3 41 97.5 L 40.5 96 Z " /><path fill="rgb(196,195,246)" stroke="rgb(196,195,246)" stroke-width="1" opacity="0.996078431372549" d="M 56.5 96 Q 58.8 101.3 61 97.5 L 60.5 96 L 63 99.5 L 59.5 104 Q 55.5 103.5 56 98.5 L 56.5 96 Z " /><path fill="rgb(196,195,246)" stroke="rgb(196,195,246)" stroke-width="1" opacity="0.996078431372549" d="M 116.5 96 Q 121 98 117.5 100 L 116 98.5 L 116.5 96 Z " /><path fill="rgb(196,195,246)" stroke="rgb(196,195,246)" stroke-width="1" opacity="0.996078431372549" d="M 136.5 96 Q 138.8 101.3 141 97.5 L 140.5 96 Q 142.8 101.3 145 97.5 L 144.5 96 Q 147.3 97.2 145 98.5 L 143 103 L 139 101.5 L 136.5 96 Z " /><path fill="rgb(196,195,246)" stroke="rgb(196,195,246)" stroke-width="1" opacity="0.996078431372549" d="M 160.5 96 Q 170.3 104.7 175 118.5 L 168.5 124 L 164.5 124 L 162.5 122 L 160.5 124 L 156.5 124 L 154.5 122 L 150.5 124 L 148 121.5 L 145 110.5 L 157.5 97 Q 159.3 100.8 161 97.5 L 160.5 96 Z " /><path fill="rgb(196,195,246)" stroke="rgb(196,195,246)" stroke-width="1" opacity="0.996078431372549" d="M 172.5 96 Q 174.8 101.3 177 97.5 L 176.5 96 Q 178.7 101.3 181 97.5 L 180.5 96 Q 182.8 101.3 185 97.5 L 184.5 96 Q 186.8 101.3 189 97.5 L 188.5 96 Q 190.7 101.3 193 97.5 L 192.5 96 Q 194.7 101.3 197 97.5 L 196.5 96 L 198 99.5 L 198 111.5 L 195.5 123 L 194.5 122 L 192.5 124 L 188.5 124 L 186.5 122 L 184.5 124 L 182 123.5 Q 184.3 122.2 183 117.5 L 172.5 96 Z " /><path fill="rgb(196,195,246)" stroke="rgb(196,195,246)" stroke-width="1" opacity="0.996078431372549" d="M 81.5 97 Q 83.2 100.1 85 98.5 L 83.5 100 L 81.5 97 Z " /><path fill="rgb(196,195,246)" stroke="rgb(196,195,246)" stroke-width="1" opacity="0.996078431372549" d="M 72.5 101 L 79 106.5 L 75.5 114 L 66 108.5 L 72.5 101 Z " /><path fill="rgb(196,195,246)" stroke="rgb(196,195,246)" stroke-width="1" opacity="0.996078431372549" d="M 127 101 L 134 106.5 L 135 108.5 Q 131.3 112.8 124.5 114 L 122 106.5 L 127 102.5 L 127 101 Z " /><path fill="rgb(196,195,246)" stroke="rgb(196,195,246)" stroke-width="1" opacity="0.996078431372549" d="M 85 110 L 89 112.5 Q 87.8 115 84 114 L 85 110 Z " /><path fill="rgb(196,195,246)" stroke="rgb(196,195,246)" stroke-width="1" opacity="0.996078431372549" d="M 113.5 110 L 116 111.5 L 117 113.5 L 112 114 L 113.5 110 Z " /><path fill="rgb(196,195,246)" stroke="rgb(196,195,246)" stroke-width="1" opacity="0.996078431372549" d="M 62.5 116 L 75 121.5 L 72.5 124 L 68.5 124 L 66.5 122 L 64.5 124 L 61.5 123 L 59 124.5 Q 58.3 122.3 60.5 123 L 60 121.5 L 62.5 116 Z " /><path fill="rgb(196,195,246)" stroke="rgb(196,195,246)" stroke-width="1" opacity="0.996078431372549" d="M 137.5 116 L 140 117.5 L 141 121.5 L 140 122.5 L 141.5 125 L 138.5 122 L 136.5 124 L 132.5 124 L 130.5 122 L 126 124.5 L 125.5 127 L 125 121 Q 132.6 120.5 137.5 116 Z " /><path fill="rgb(196,195,246)" stroke="rgb(196,195,246)" stroke-width="1" opacity="0.996078431372549" d="M 99.5 117 L 103 118.5 L 100.5 123 Q 97.5 122.5 98 118.5 L 99.5 117 Z " /><path fill="rgb(196,195,246)" stroke="rgb(196,195,246)" stroke-width="1" opacity="0.996078431372549" d="M 86.5 121 Q 91 120 92 122.5 L 93 124.5 L 91 123.5 L 90.5 122 L 88.5 124 L 82 123.5 Q 81.1 120.5 85.5 122 L 86.5 121 Z " /><path fill="rgb(196,195,246)" stroke="rgb(196,195,246)" stroke-width="1" opacity="0.996078431372549" d="M 110.5 121 L 118 122.5 L 116.5 124 L 114.5 122 L 112.5 124 L 109 122.5 L 110.5 121 Z " /><path fill="rgb(196,195,246)" stroke="rgb(196,195,246)" stroke-width="1" opacity="0.996078431372549" d="M 108.5 124 L 107.5 126 L 108.5 124 Z " /><path fill="rgb(196,195,246)" stroke="rgb(196,195,246)" stroke-width="1" opacity="0.996078431372549" d="M 166.5 125 L 165.5 127 L 166.5 125 Z " /><path fill="rgb(196,195,246)" stroke="rgb(196,195,246)" stroke-width="1" opacity="0.996078431372549" d="M 75.5 126 L 76 128.5 L 75 128.5 L 75.5 126 Z " /><path fill="rgb(196,195,246)" stroke="rgb(196,195,246)" stroke-width="1" opacity="0.996078431372549" d="M 93.5 126 L 94.5 128 L 93.5 126 Z " /><path fill="rgb(196,195,246)" stroke="rgb(196,195,246)" stroke-width="1" opacity="0.996078431372549" d="M 163.5 127 L 162.5 129 L 163.5 127 Z " /><path fill="rgb(196,195,246)" stroke="rgb(196,195,246)" stroke-width="1" opacity="0.996078431372549" d="M 176.5 127 L 175.5 129 L 176.5 127 Z " /><path fill="rgb(196,195,246)" stroke="rgb(196,195,246)" stroke-width="1" opacity="0.996078431372549" d="M 26.5 129 L 27.5 131 L 26.5 129 Z " /><path fill="rgb(196,195,246)" stroke="rgb(196,195,246)" stroke-width="1" opacity="0.996078431372549" d="M 62.5 136 L 66 136.5 L 62.5 137 L 62.5 136 Z " /><path fill="rgb(196,195,246)" stroke="rgb(196,195,246)" stroke-width="1" opacity="0.996078431372549" d="M 71.5 136 L 75 136.5 L 71.5 137 L 71.5 136 Z " /><path fill="rgb(196,195,246)" stroke="rgb(196,195,246)" stroke-width="1" opacity="0.996078431372549" d="M 126.5 136 L 130 136.5 L 126.5 137 L 126.5 136 Z " /><path fill="rgb(196,195,246)" stroke="rgb(196,195,246)" stroke-width="1" opacity="0.996078431372549" d="M 135.5 136 L 138 136.5 L 135.5 137 L 135.5 136 Z " /><path fill="rgb(196,195,246)" stroke="rgb(196,195,246)" stroke-width="1" opacity="0.996078431372549" d="M 141.5 143 Q 144.1 142.2 143 145.5 L 142 145.5 L 141.5 143 Z " /><path fill="rgb(196,195,246)" stroke="rgb(196,195,246)" stroke-width="1" opacity="0.996078431372549" d="M 106.5 150 L 101.5 156 L 106.5 150 Z " /><path fill="rgb(196,195,246)" stroke="rgb(196,195,246)" stroke-width="1" opacity="0.996078431372549" d="M 111.5 155 L 107.5 160 L 111.5 155 Z " /><path fill="rgb(196,195,246)" stroke="rgb(196,195,246)" stroke-width="1" opacity="0.996078431372549" d="M 134.5 169 L 133.5 171 L 132 170.5 L 134.5 169 Z " /><path fill="rgb(1,1,2)" stroke="rgb(1,1,2)" stroke-width="1" opacity="0.00784313725490196" d="M 0 0 L 200 0 L 200 200 L 0 200 L 0 0 Z M 87 2 Q 56 7 37 24 Q 22 36 13 53 Q 5 66 2 85 L 2 114 L 4 125 Q 11 148 25 165 Q 46 191 87 198 L 113 198 L 114 197 L 125 196 Q 150 189 167 173 Q 191 152 198 114 L 198 88 L 194 70 Q 187 49 174 35 Q 159 17 137 8 L 114 2 L 87 2 Z " /><path fill="rgb(167,165,241)" stroke="rgb(167,165,241)" stroke-width="1" opacity="0.996078431372549" d="M 36.5 24 L 35.5 26 L 36.5 24 Z " /><path fill="rgb(167,165,241)" stroke="rgb(167,165,241)" stroke-width="1" opacity="0.996078431372549" d="M 165.5 26 L 169.5 31 L 165.5 26 Z " /><path fill="rgb(167,165,241)" stroke="rgb(167,165,241)" stroke-width="1" opacity="0.996078431372549" d="M 25.5 35 L 24.5 37 L 25.5 35 Z " /><path fill="rgb(167,165,241)" stroke="rgb(167,165,241)" stroke-width="1" opacity="0.996078431372549" d="M 16.5 152 L 17.5 154 L 16.5 152 Z " /><path fill="rgb(167,165,241)" stroke="rgb(167,165,241)" stroke-width="1" opacity="0.996078431372549" d="M 18.5 155 L 19.5 157 L 18.5 155 Z " /><path fill="rgb(167,165,241)" stroke="rgb(167,165,241)" stroke-width="1" opacity="0.996078431372549" d="M 180.5 156 L 179.5 158 L 180.5 156 Z " /><path fill="rgb(167,165,241)" stroke="rgb(167,165,241)" stroke-width="1" opacity="0.996078431372549" d="M 21.5 159 L 22.5 161 L 21.5 159 Z " /><path fill="rgb(167,165,241)" stroke="rgb(167,165,241)" stroke-width="1" opacity="0.996078431372549" d="M 177.5 160 L 176.5 162 L 177.5 160 Z " /><path fill="rgb(167,165,241)" stroke="rgb(167,165,241)" stroke-width="1" opacity="0.996078431372549" d="M 25.5 164 L 28.5 166 L 56 165.5 L 56 167.5 L 63.5 178 L 71.5 178 L 80.5 176 L 100.5 166 L 105.5 170 L 116.5 175 L 129.5 178 L 137.5 178 L 145.5 165 L 174 165.5 Q 158.1 183.6 133.5 193 L 112.5 198 L 86.5 198 Q 45.2 190.6 25.5 164 Z " /><path fill="rgb(167,165,241)" stroke="rgb(167,165,241)" stroke-width="1" opacity="0.996078431372549" d="M 65.5 165 L 82 165.5 Q 82.8 167.8 80.5 167 L 76.5 169 L 67.5 170 Q 63.8 168.2 65.5 165 Z " /><path fill="rgb(167,165,241)" stroke="rgb(167,165,241)" stroke-width="1" opacity="0.996078431372549" d="M 119.5 165 L 136 165.5 L 134 170 L 124.5 169 L 119 167 L 119.5 165 Z " /><path fill="rgb(171,169,242)" stroke="rgb(171,169,242)" stroke-width="1" opacity="1" d="M 170.5 31 L 172.5 34 L 170.5 31 Z " /><path fill="rgb(171,169,242)" stroke="rgb(171,169,242)" stroke-width="1" opacity="1" d="M 14.5 146 L 29.5 147 L 32.5 146 L 37.5 147 L 40.5 146 L 51 146.5 Q 51.1 157.9 56 164.5 L 54.5 166 L 27.5 165 L 23 161.5 L 16 151.5 L 14.5 146 Z " /><path fill="rgb(171,169,242)" stroke="rgb(171,169,242)" stroke-width="1" opacity="1" d="M 60.5 146 L 81.5 147 Q 83.8 146.3 83 148.5 L 94 162 L 84.5 166 L 83 165.5 L 82.5 167 L 81.5 165 L 64 165.5 L 60 154.5 L 59 147.5 L 60.5 146 Z " /><path fill="rgb(171,169,242)" stroke="rgb(171,169,242)" stroke-width="1" opacity="1" d="M 92.5 146 L 109 146.5 L 100.5 156 L 92 147.5 L 92.5 146 Z " /><path fill="rgb(171,169,242)" stroke="rgb(171,169,242)" stroke-width="1" opacity="1" d="M 120.5 146 L 140.5 146 L 142 147.5 L 137 165 L 135 165.5 L 135.5 167 L 133.5 165 L 119 165.5 Q 119.8 167.8 117.5 167 L 107 162 L 118.5 147 L 120.5 146 Z " /><path fill="rgb(171,169,242)" stroke="rgb(171,169,242)" stroke-width="1" opacity="1" d="M 150.5 146 L 184.5 146 L 186 147.5 L 172.5 166 L 146.5 166 L 145 164.5 L 149 154.5 L 150.5 146 Z " /><path fill="rgb(171,169,242)" stroke="rgb(171,169,242)" stroke-width="1" opacity="1" d="M 99.5 166 L 98.5 168 L 99.5 166 Z " /></svg>